<svg width="1600" height="1000" viewBox="0 0 1600 1000" fill="none" xmlns="http://www.w3.org/2000/svg">
  <rect width="1600" height="1000" fill="#08101B"/>
  <rect x="72" y="72" width="1456" height="856" rx="28" fill="url(#paint0_linear)"/>
  <circle cx="1186" cy="256" r="184" fill="#9AE6B4" fill-opacity="0.08"/>
  <circle cx="1186" cy="256" r="110" stroke="#9AE6B4" stroke-opacity="0.22" stroke-width="2"/>
  <circle cx="1186" cy="256" r="56" fill="#9AE6B4" fill-opacity="0.18"/>
  <path d="M292 648C382 568 470 530 566 526C682 521 744 591 834 607C960 629 1082 525 1280 372" stroke="#F0B56B" stroke-width="20" stroke-linecap="round"/>
  <rect x="156" y="170" width="460" height="268" rx="24" fill="#132033"/>
  <rect x="216" y="230" width="206" height="30" rx="15" fill="#9AE6B4"/>
  <rect x="216" y="292" width="328" height="82" rx="16" fill="#9AE6B4" fill-opacity="0.12"/>
  <rect x="156" y="506" width="1288" height="262" rx="24" fill="#0F1723"/>
  <rect x="216" y="574" width="222" height="28" rx="14" fill="#F0B56B"/>
  <rect x="472" y="574" width="250" height="28" rx="14" fill="#9AE6B4"/>
  <rect x="216" y="638" width="768" height="24" rx="12" fill="#A7B3C8" fill-opacity="0.18"/>
  <rect x="216" y="686" width="692" height="24" rx="12" fill="#A7B3C8" fill-opacity="0.18"/>
  <text x="156" y="126" fill="#9AE6B4" font-family="Arial, sans-serif" font-size="28" font-weight="700">CEPHEUS</text>
  <text x="156" y="846" fill="#A7B3C8" font-family="Arial, sans-serif" font-size="28">Atmospheric space project placeholder for your portfolio card.</text>
  <defs>
    <linearGradient id="paint0_linear" x1="120" y1="108" x2="1436" y2="910" gradientUnits="userSpaceOnUse">
      <stop stop-color="#111C2B"/>
      <stop offset="1" stop-color="#0A111B"/>
    </linearGradient>
  </defs>
</svg>
