<svg width="1600" height="1000" viewBox="0 0 1600 1000" fill="none" xmlns="http://www.w3.org/2000/svg">
  <rect width="1600" height="1000" fill="#0F1723"/>
  <circle cx="1268" cy="210" r="146" fill="#F0B56B" fill-opacity="0.15"/>
  <circle cx="286" cy="752" r="180" fill="#9AE6B4" fill-opacity="0.12"/>
  <rect x="170" y="120" width="1260" height="760" rx="36" fill="#121C2A"/>
  <rect x="324" y="190" width="280" height="590" rx="38" fill="#182333"/>
  <rect x="670" y="190" width="280" height="590" rx="38" fill="#182333"/>
  <rect x="1016" y="190" width="280" height="590" rx="38" fill="#182333"/>
  <rect x="386" y="278" width="156" height="156" rx="28" fill="#9AE6B4" fill-opacity="0.16"/>
  <rect x="386" y="468" width="156" height="24" rx="12" fill="#F0B56B"/>
  <rect x="386" y="516" width="118" height="20" rx="10" fill="#A7B3C8" fill-opacity="0.18"/>
  <rect x="732" y="258" width="156" height="32" rx="16" fill="#9AE6B4"/>
  <rect x="732" y="322" width="160" height="212" rx="22" fill="#1D2B40"/>
  <rect x="1078" y="280" width="156" height="156" rx="78" fill="#9AE6B4" fill-opacity="0.16"/>
  <rect x="1078" y="486" width="160" height="26" rx="13" fill="#F0B56B"/>
  <text x="170" y="96" fill="#9AE6B4" font-family="Arial, sans-serif" font-size="28" font-weight="700">MOBILE EXPERIENCE PLACEHOLDER</text>
  <text x="170" y="930" fill="#A7B3C8" font-family="Arial, sans-serif" font-size="28">Use a real phone mockup or export from Figma here.</text>
</svg>
