<svg width="1600" height="1000" viewBox="0 0 1600 1000" fill="none" xmlns="http://www.w3.org/2000/svg">
  <rect width="1600" height="1000" fill="#0B1017"/>
  <rect x="72" y="72" width="1456" height="856" rx="28" fill="#121C2A"/>
  <rect x="132" y="132" width="260" height="736" rx="22" fill="#182333"/>
  <rect x="452" y="132" width="1016" height="160" rx="22" fill="#1D2B40"/>
  <rect x="452" y="336" width="478" height="256" rx="22" fill="#182333"/>
  <rect x="990" y="336" width="478" height="256" rx="22" fill="#182333"/>
  <rect x="452" y="636" width="1016" height="232" rx="22" fill="#101724"/>
  <rect x="188" y="226" width="150" height="26" rx="13" fill="#9AE6B4" fill-opacity="0.9"/>
  <rect x="188" y="298" width="110" height="22" rx="11" fill="#A7B3C8" fill-opacity="0.24"/>
  <rect x="188" y="344" width="132" height="22" rx="11" fill="#A7B3C8" fill-opacity="0.18"/>
  <rect x="188" y="390" width="94" height="22" rx="11" fill="#A7B3C8" fill-opacity="0.18"/>
  <path d="M522 480C580 406 642 390 706 438C770 486 834 464 882 402" stroke="#9AE6B4" stroke-width="20" stroke-linecap="round"/>
  <rect x="1044" y="396" width="148" height="148" rx="24" fill="#9AE6B4" fill-opacity="0.16"/>
  <rect x="1214" y="396" width="182" height="34" rx="17" fill="#F0B56B"/>
  <rect x="1214" y="454" width="206" height="24" rx="12" fill="#A7B3C8" fill-opacity="0.18"/>
  <rect x="1214" y="498" width="170" height="24" rx="12" fill="#A7B3C8" fill-opacity="0.18"/>
  <rect x="520" y="698" width="300" height="26" rx="13" fill="#9AE6B4"/>
  <rect x="850" y="698" width="474" height="26" rx="13" fill="#A7B3C8" fill-opacity="0.18"/>
  <rect x="520" y="752" width="770" height="22" rx="11" fill="#A7B3C8" fill-opacity="0.18"/>
  <text x="132" y="112" fill="#9AE6B4" font-family="Arial, sans-serif" font-size="28" font-weight="700">DASHBOARD PLACEHOLDER</text>
  <text x="132" y="910" fill="#A7B3C8" font-family="Arial, sans-serif" font-size="28">Swap this with a real app, admin panel, or analytics view.</text>
</svg>
